<?xml version="1.0" encoding="UTF-8"?>
<svg version="1.1" xmlns="http://www.w3.org/2000/svg" width="48" height="48">
<path d="M0 0 C4.68796317 2.8950501 8.77605467 6.42344712 10.234375 11.89453125 C11.16656452 18.74158704 11.3930195 24.99387098 7.671875 31.01953125 C3.66347868 35.99068326 0.31000422 38.47580101 -6.0078125 39.3359375 C-13.1275177 39.69575056 -18.34453314 39.19135672 -23.98828125 34.640625 C-29.08369757 29.63479842 -30.03494232 26.05750776 -30.390625 19.01953125 C-30.17838344 12.13997715 -28.58962241 7.80486419 -23.765625 2.89453125 C-17.29271618 -2.6344117 -7.84970384 -3.13766411 0 0 Z " fill="#1666C0" transform="translate(33.765625,5.10546875)"/>
<path d="M0 0 C0 4.62 0 9.24 0 14 C0.66 14 1.32 14 2 14 C2 9.38 2 4.76 2 0 C8.75 2.25 8.75 2.25 11.375 7.125 C12.12910156 8.49011719 12.12910156 8.49011719 12.8984375 9.8828125 C13.26195313 10.58148438 13.62546875 11.28015625 14 12 C12.02 12.99 12.02 12.99 10 14 C9.01 12.35 8.02 10.7 7 9 C6.51547537 15.94485303 8.30712509 22.2990368 10 29 C8.35 29.33 6.7 29.66 5 30 C4.49166409 28.75336669 3.99368855 27.50250613 3.5 26.25 C3.2215625 25.55390625 2.943125 24.8578125 2.65625 24.140625 C2 22 2 22 2 18 C1.34 18 0.68 18 0 18 C-0.12375 18.86625 -0.2475 19.7325 -0.375 20.625 C-0.98058121 23.89513853 -1.88306035 26.87256899 -3 30 C-4.65 29.67 -6.3 29.34 -8 29 C-7.67515625 27.71416016 -7.67515625 27.71416016 -7.34375 26.40234375 C-5.24008649 17.79210922 -5.24008649 17.79210922 -5 9 C-6.485 11.475 -6.485 11.475 -8 14 C-9.32 13.34 -10.64 12.68 -12 12 C-11.09648559 10.36765063 -10.1766431 8.74433176 -9.25 7.125 C-8.73953125 6.22007813 -8.2290625 5.31515625 -7.703125 4.3828125 C-5.5636615 1.38952641 -3.7265546 0 0 0 Z " fill="#F1F6FB" transform="translate(23,9)"/>
</svg>
